<svg width="25" height="25" viewBox="0 0 25 25" fill="none" xmlns="http://www.w3.org/2000/svg">
<mask id="mask0_207_807" style="mask-type:alpha" maskUnits="userSpaceOnUse" x="0" y="0" width="25" height="25">
<rect width="25" height="25" fill="#D9D9D9"/>
</mask>
<g mask="url(#mask0_207_807)">
<path d="M12.4999 21.875L10.9895 20.5209C9.23603 18.941 7.78638 17.5781 6.64054 16.4323C5.49471 15.2865 4.58325 14.2578 3.90617 13.3464C3.22909 12.4349 2.756 11.5972 2.4869 10.8334C2.2178 10.0695 2.08325 9.28821 2.08325 8.4896C2.08325 6.85766 2.63013 5.49481 3.72388 4.40106C4.81763 3.30731 6.18047 2.76044 7.81242 2.76044C8.7152 2.76044 9.57457 2.95141 10.3905 3.33335C11.2065 3.7153 11.9096 4.25349 12.4999 4.94794C13.0902 4.25349 13.7933 3.7153 14.6093 3.33335C15.4253 2.95141 16.2846 2.76044 17.1874 2.76044C18.8194 2.76044 20.1822 3.30731 21.276 4.40106C22.3697 5.49481 22.9166 6.85766 22.9166 8.4896C22.9166 9.28821 22.782 10.0695 22.5129 10.8334C22.2438 11.5972 21.7708 12.4349 21.0937 13.3464C20.4166 14.2578 19.5051 15.2865 18.3593 16.4323C17.2135 17.5781 15.7638 18.941 14.0103 20.5209L12.4999 21.875ZM12.4999 19.0625C14.1666 17.5695 15.5381 16.2891 16.6145 15.2214C17.6909 14.1537 18.5416 13.2248 19.1666 12.4349C19.7916 11.645 20.2256 10.9419 20.4687 10.3255C20.7117 9.70922 20.8333 9.09724 20.8333 8.4896C20.8333 7.44794 20.486 6.57988 19.7916 5.88544C19.0971 5.19099 18.2291 4.84377 17.1874 4.84377C16.3714 4.84377 15.6162 5.07381 14.9218 5.53387C14.2274 5.99394 13.7499 6.57988 13.4895 7.29169H11.5103C11.2499 6.57988 10.7725 5.99394 10.078 5.53387C9.3836 5.07381 8.62839 4.84377 7.81242 4.84377C6.77075 4.84377 5.9027 5.19099 5.20825 5.88544C4.51381 6.57988 4.16659 7.44794 4.16659 8.4896C4.16659 9.09724 4.28811 9.70922 4.53117 10.3255C4.77422 10.9419 5.20825 11.645 5.83325 12.4349C6.45825 13.2248 7.30895 14.1537 8.38534 15.2214C9.46172 16.2891 10.8333 17.5695 12.4999 19.0625Z" fill="black"/>
</g>
</svg>
