<svg width="120" height="120" viewBox="0 0 120 120" fill="none" xmlns="http://www.w3.org/2000/svg">
<circle cx="60" cy="60" r="60" fill="#F2F2F2"/>
<path d="M81.8559 58.096C81.8559 59.648 80.5439 60.928 78.9439 60.928H42.1279C40.5279 60.928 39.2159 59.648 39.2159 58.096L42.1279 27.424C42.1279 25.872 43.4399 24.592 45.0399 24.592H76.0479C77.6479 24.592 78.9599 25.872 78.9599 27.424L81.8719 58.096H81.8559Z" fill="white" stroke="black" stroke-width="2" stroke-miterlimit="10"/>
<path d="M84.096 59.344H36.976C35.2087 59.344 33.776 60.7767 33.776 62.544V65.36C33.776 67.1273 35.2087 68.56 36.976 68.56H84.096C85.8633 68.56 87.296 67.1273 87.296 65.36V62.544C87.296 60.7767 85.8633 59.344 84.096 59.344Z" fill="white" stroke="black" stroke-width="2" stroke-miterlimit="10"/>
<path d="M41.024 97.632L37.92 97.328C37.072 97.248 36.432 96.48 36.512 95.632L38.928 69.952C39.008 69.104 39.776 68.464 40.624 68.544H46.416C47.264 68.624 48.544 68.176 47.824 70.24L42.72 96.224C42.64 97.072 41.872 97.712 41.024 97.632Z" fill="white" stroke="black" stroke-width="2" stroke-miterlimit="10"/>
<path d="M80.048 97.632L83.152 97.328C84 97.248 84.64 96.48 84.56 95.632L82.144 69.952C82.064 69.104 81.296 68.464 80.448 68.544H74.656C73.808 68.624 72.528 68.176 73.248 70.24L78.352 96.224C78.432 97.072 79.2 97.712 80.048 97.632Z" fill="white" stroke="black" stroke-width="2" stroke-miterlimit="10"/>
</svg>
