<svg width="120" height="120" viewBox="0 0 120 120" fill="none" xmlns="http://www.w3.org/2000/svg">
<circle cx="60" cy="60" r="60" fill="#F2F2F2"/>
<path d="M76.528 75.9039V80.752C76.528 89.52 70.24 97.2479 61.744 98.08C52.064 99.024 43.84 91.12 43.84 81.344V75.9039C43.84 74.2879 45.12 72.976 46.688 72.976H73.68C75.248 72.976 76.528 74.2879 76.528 75.9039Z" fill="white" stroke="black" stroke-width="2" stroke-miterlimit="10"/>
<path d="M60.192 31.9041V72.9921" stroke="black" stroke-width="2" stroke-miterlimit="10"/>
<path d="M66.752 31.04C64.832 34.64 62.224 36.432 60.864 37.456C60.464 37.744 60.784 37.616 60.608 37.152C59.984 35.536 59.968 32.048 60.608 29.04C61.376 25.424 64.432 23.008 65.808 21.984C66.208 21.696 66.752 21.856 66.928 22.32C67.552 23.936 68.496 27.792 66.768 31.04H66.752Z" fill="white" stroke="black" stroke-width="2" stroke-miterlimit="10"/>
<path d="M70.352 58.624C67.392 60.736 62.736 60.24 61.04 60.144C60.56 60.112 61.168 60.224 61.312 59.76C61.824 58.096 63.2 54.56 66.16 52.432C69.12 50.304 72.832 50.224 74.512 50.32C74.992 50.352 75.328 50.832 75.184 51.312C74.672 52.976 73.296 56.512 70.336 58.64L70.352 58.624Z" fill="white" stroke="black" stroke-width="2" stroke-miterlimit="10"/>
<path d="M58.336 26.288C59.856 28.224 60.128 30.8 60.128 32.368C60.128 33.12 59.456 33.68 58.736 33.52C57.248 33.184 54.864 32.368 53.344 30.432C51.824 28.496 51.552 25.92 51.552 24.352C51.552 23.6 52.224 23.04 52.944 23.2C54.432 23.536 56.816 24.352 58.336 26.288Z" fill="white" stroke="black" stroke-width="2" stroke-miterlimit="10"/>
<path d="M53.376 42.208C56.416 44.24 57.968 47.792 58.672 50.032C59.024 51.12 58.304 52.24 57.2 52.352C54.928 52.592 51.152 52.56 48.112 50.528C45.072 48.496 43.52 44.944 42.816 42.704C42.464 41.616 43.184 40.496 44.288 40.384C46.56 40.144 50.336 40.176 53.376 42.208Z" fill="white" stroke="black" stroke-width="2" stroke-miterlimit="10"/>
</svg>
