<svg width="120" height="120" viewBox="0 0 120 120" fill="none" xmlns="http://www.w3.org/2000/svg">
<circle cx="60" cy="60" r="60" fill="#F2F2F2"/>
<path d="M60 59.392C60 59.392 33.088 57.248 35.248 76.272C35.248 76.272 36.144 86.176 60 89.344C83.856 86.176 84.736 76.272 84.736 76.272C86.896 57.248 60 59.392 60 59.392Z" fill="white" stroke="black" stroke-width="2" stroke-miterlimit="10"/>
<path d="M78.448 35.2799C79.648 37.8399 80.304 40.7199 80.304 43.7279C80.304 54.9439 71.216 64.0319 60.016 64.0319C48.816 64.0319 39.712 54.9439 39.712 43.7279C39.712 40.7199 40.368 37.8399 41.568 35.2799C39.008 34.5919 37.104 32.2559 37.104 29.4719C37.104 26.1279 39.808 23.4399 43.136 23.4399C45.552 23.4399 47.648 24.8639 48.592 26.9439C51.84 24.7359 55.776 23.4399 60.016 23.4399C64.256 23.4399 68.176 24.7359 71.424 26.9439C72.368 24.8639 74.464 23.4399 76.88 23.4399C80.224 23.4399 82.912 26.1439 82.912 29.4719C82.912 32.2399 81.04 34.5919 78.448 35.2799Z" fill="white" stroke="#231F20" stroke-width="2" stroke-miterlimit="10"/>
<path d="M47.12 96.576C52.6605 96.576 57.152 91.9556 57.152 86.256C57.152 80.5565 52.6605 75.936 47.12 75.936C41.5795 75.936 37.088 80.5565 37.088 86.256C37.088 91.9556 41.5795 96.576 47.12 96.576Z" fill="white" stroke="black" stroke-width="2" stroke-miterlimit="10"/>
<path d="M74.272 96.576C79.8125 96.576 84.304 91.9556 84.304 86.256C84.304 80.5565 79.8125 75.936 74.272 75.936C68.7315 75.936 64.24 80.5565 64.24 86.256C64.24 91.9556 68.7315 96.576 74.272 96.576Z" fill="white" stroke="black" stroke-width="2" stroke-miterlimit="10"/>
<path d="M53.92 42.688C54.9804 42.688 55.84 41.6708 55.84 40.416C55.84 39.1613 54.9804 38.144 53.92 38.144C52.8596 38.144 52 39.1613 52 40.416C52 41.6708 52.8596 42.688 53.92 42.688Z" fill="#231F20"/>
<path d="M66.6879 42.688C67.7483 42.688 68.6079 41.6708 68.6079 40.416C68.6079 39.1613 67.7483 38.144 66.6879 38.144C65.6276 38.144 64.7679 39.1613 64.7679 40.416C64.7679 41.6708 65.6276 42.688 66.6879 42.688Z" fill="#231F20"/>
<path d="M60.5466 45.9787C60.688 45.4146 60.1534 44.7704 59.3525 44.5398C58.5515 44.3092 57.7876 44.5795 57.6462 45.1435C57.5048 45.7075 58.0394 46.3518 58.8403 46.5824C59.6413 46.813 60.4052 46.5427 60.5466 45.9787Z" fill="#231F20"/>
<path d="M60.94 46.5741C61.7409 46.3435 62.2755 45.6992 62.1341 45.1352C61.9927 44.5712 61.2288 44.3009 60.4279 44.5315C59.6269 44.7621 59.0923 45.4063 59.2337 45.9704C59.3751 46.5344 60.1391 46.8047 60.94 46.5741Z" fill="#231F20"/>
<path d="M60.39 46H59.39V49H60.39V46Z" fill="#231F20"/>
<path d="M60.4162 50.0932C60.8677 49.8325 61.0242 49.2583 60.7657 48.8106C60.5073 48.3629 59.9317 48.2113 59.4802 48.472L57.8174 49.432C57.3659 49.6927 57.2094 50.2669 57.4679 50.7146C57.7264 51.1623 58.3019 51.3139 58.7534 51.0532L60.4162 50.0932Z" fill="#231F20"/>
<path d="M61.2044 51.0937C61.6559 51.3543 62.2314 51.2027 62.4899 50.7551C62.7484 50.3074 62.5919 49.7331 62.1404 49.4725L60.4776 48.5125C60.0261 48.2518 59.4505 48.4034 59.1921 48.8511C58.9336 49.2987 59.0901 49.873 59.5416 50.1337L61.2044 51.0937Z" fill="#231F20"/>
</svg>
