<svg width="120" height="120" viewBox="0 0 120 120" fill="none" xmlns="http://www.w3.org/2000/svg">
<circle cx="60" cy="60" r="60" fill="#F2F2F2"/>
<path d="M83.088 69.888C82.944 71.248 83.136 72.624 83.792 73.84C85.52 77.072 85.2 80.624 82.704 82.64C80.272 84.624 76.448 84.56 73.12 82.768C71.92 82.128 70.544 81.84 69.168 81.904C68.896 81.904 68.624 81.92 68.352 81.92H40.72C40.448 81.92 40.176 81.92 39.904 81.904C38.528 81.84 37.136 82.128 35.936 82.768C32.608 84.544 28.784 84.608 26.352 82.624C23.856 80.608 23.552 77.056 25.264 73.824C25.904 72.608 26.112 71.232 25.968 69.888C25.92 69.44 25.888 69.008 25.888 68.544V42.064C25.888 41.616 25.92 41.168 25.968 40.72C26.112 39.376 25.92 38 25.264 36.784C23.552 33.552 23.856 30 26.352 27.984C28.784 26 32.608 26.064 35.936 27.84C37.136 28.48 38.512 28.768 39.904 28.704C40.176 28.704 40.448 28.688 40.72 28.688H68.336C68.608 28.688 68.88 28.688 69.152 28.704C70.528 28.768 71.92 28.48 73.104 27.84C76.432 26.048 80.272 25.984 82.688 27.968C85.184 29.984 85.504 33.536 83.776 36.768C83.136 37.984 82.928 39.36 83.072 40.72C83.12 41.152 83.152 41.6 83.152 42.048V68.544C83.152 68.992 83.12 69.44 83.072 69.872L83.088 69.888Z" fill="white" stroke="black" stroke-width="2" stroke-miterlimit="10"/>
<path d="M98.592 72.864C98.592 84.928 88.736 94.704 76.56 94.704C64.384 94.704 54.528 84.928 54.528 72.864C54.528 72.576 54.528 72.288 54.56 72C54.56 71.696 54.56 71.424 54.608 71.136C55.488 67.36 64.992 64.4 76.56 64.4C88.128 64.4 97.632 67.36 98.512 71.136C98.544 71.424 98.56 71.696 98.56 72C98.592 72.288 98.592 72.576 98.592 72.864Z" fill="white" stroke="black" stroke-width="2" stroke-miterlimit="10"/>
<path d="M98.592 71.728C98.592 71.824 98.592 71.904 98.56 72.016C98.128 75.936 88.448 79.056 76.56 79.056C64.672 79.056 54.992 75.936 54.56 72.016C54.528 71.92 54.528 71.84 54.528 71.728C54.528 71.536 54.56 71.344 54.608 71.152C55.488 67.376 64.992 64.416 76.56 64.416C88.128 64.416 97.632 67.376 98.512 71.152C98.56 71.344 98.592 71.536 98.592 71.728Z" fill="white" stroke="black" stroke-width="2" stroke-miterlimit="10"/>
</svg>
