<svg width="120" height="120" viewBox="0 0 120 120" fill="none" xmlns="http://www.w3.org/2000/svg">
<circle cx="60" cy="60" r="60" fill="#F2F2F2"/>
<path d="M34.3679 90.64L58.0959 41.536C58.7359 40.208 60.6239 40.192 61.2799 41.52L85.6159 90.592C86.0639 91.488 85.6799 92.576 84.7679 92.992C78.7359 95.712 57.1359 103.872 35.1679 92.992C34.3039 92.56 33.9519 91.488 34.3679 90.624V90.64Z" fill="white" stroke="#231F20" stroke-width="2" stroke-miterlimit="10"/>
<path d="M44.576 69.504C57.264 69.664 65.2001 61.936 68.9921 57.04L44.576 69.504Z" fill="white"/>
<path d="M44.576 69.504C57.264 69.664 65.2001 61.936 68.9921 57.04" stroke="#231F20" stroke-width="2" stroke-miterlimit="10"/>
<path d="M36.7841 85.632C55.6321 90.208 69.6321 80.048 76.8001 72.816L36.7841 85.632Z" fill="white"/>
<path d="M36.7841 85.632C55.6321 90.208 69.6321 80.048 76.8001 72.816" stroke="#231F20" stroke-width="2" stroke-miterlimit="10"/>
<path d="M66.656 44.4L60 39.744C59.824 39.616 59.568 39.616 59.392 39.744L52.912 44.64C52.512 44.944 51.952 44.56 52.112 44.08L54.48 36.304C54.544 36.096 54.48 35.856 54.288 35.728L47.632 31.072C47.216 30.784 47.424 30.144 47.92 30.128L56.048 29.984C56.272 29.984 56.464 29.824 56.528 29.616L58.896 21.84C59.04 21.36 59.712 21.344 59.888 21.824L62.544 29.504C62.624 29.712 62.816 29.856 63.04 29.856L71.168 29.712C71.664 29.712 71.888 30.336 71.488 30.64L65.008 35.536C64.832 35.664 64.752 35.904 64.832 36.112L67.488 43.792C67.648 44.272 67.12 44.672 66.704 44.384L66.656 44.4Z" fill="white" stroke="#231F20" stroke-width="2" stroke-miterlimit="10"/>
</svg>
