<svg width="120" height="120" viewBox="0 0 120 120" fill="none" xmlns="http://www.w3.org/2000/svg">
<circle cx="60" cy="60" r="60" fill="#F2F2F2"/>
<path d="M33.6338 66.6173C37.3017 65.1279 38.5503 59.6727 36.4226 54.4328C34.2949 49.193 29.5966 46.1526 25.9287 47.642C22.2608 49.1314 21.0122 54.5865 23.1399 59.8264C25.2676 65.0663 29.9659 68.1067 33.6338 66.6173Z" fill="white" stroke="black" stroke-width="2" stroke-miterlimit="10"/>
<path d="M50.8217 48.3624C54.7168 47.6552 57.0554 42.5711 56.0452 37.0066C55.035 31.4422 51.0584 27.5046 47.1633 28.2118C43.2682 28.9189 40.9295 34.0031 41.9398 39.5675C42.95 45.1319 46.9266 49.0695 50.8217 48.3624Z" fill="white" stroke="black" stroke-width="2" stroke-miterlimit="10"/>
<path d="M96.8608 59.8277C98.9885 54.5878 97.7399 49.1326 94.072 47.6432C90.4041 46.1538 85.7058 49.1942 83.5781 54.4341C81.4504 59.674 82.699 65.1291 86.3669 66.6185C90.0349 68.1079 94.7331 65.0675 96.8608 59.8277Z" fill="white" stroke="black" stroke-width="2" stroke-miterlimit="10"/>
<path d="M78.0622 39.5596C79.0724 33.9952 76.7337 28.9111 72.8386 28.2039C68.9435 27.4968 64.967 31.4344 63.9567 36.9988C62.9465 42.5632 65.2852 47.6474 69.1803 48.3545C73.0754 49.0617 77.0519 45.1241 78.0622 39.5596Z" fill="white" stroke="black" stroke-width="2" stroke-miterlimit="10"/>
<path d="M82.304 73.472L67.984 56.448C65.808 53.872 62.624 52.656 59.488 52.848C56.352 52.656 53.152 53.872 50.992 56.448L36.672 73.472C33.04 77.792 33.6 84.32 37.92 87.952C40.944 90.496 48.512 91.04 54.032 89.648C57.6 88.752 61.36 88.752 64.912 89.648C70.432 91.04 78 90.496 81.024 87.952C85.344 84.32 85.92 77.792 82.272 73.472H82.304Z" fill="white" stroke="black" stroke-width="2" stroke-miterlimit="10"/>
</svg>
