<svg width="30" height="30" viewBox="0 0 30 30" fill="none" xmlns="http://www.w3.org/2000/svg">
<mask id="mask0_317_267" style="mask-type:alpha" maskUnits="userSpaceOnUse" x="0" y="0" width="30" height="30">
<rect width="30" height="30" fill="#D9D9D9"/>
</mask>
<g mask="url(#mask0_317_267)">
<path d="M24.501 26.25L16.626 18.375C16.001 18.875 15.2822 19.2708 14.4697 19.5625C13.6572 19.8542 12.7926 20 11.876 20C9.60514 20 7.68327 19.2135 6.11035 17.6406C4.53743 16.0677 3.75098 14.1458 3.75098 11.875C3.75098 9.60417 4.53743 7.68229 6.11035 6.10938C7.68327 4.53646 9.60514 3.75 11.876 3.75C14.1468 3.75 16.0687 4.53646 17.6416 6.10938C19.2145 7.68229 20.001 9.60417 20.001 11.875C20.001 12.7917 19.8551 13.6563 19.5635 14.4688C19.2718 15.2813 18.876 16 18.376 16.625L26.251 24.5L24.501 26.25ZM11.876 17.5C13.4385 17.5 14.7666 16.9531 15.8604 15.8594C16.9541 14.7656 17.501 13.4375 17.501 11.875C17.501 10.3125 16.9541 8.98438 15.8604 7.89063C14.7666 6.79688 13.4385 6.25 11.876 6.25C10.3135 6.25 8.98535 6.79688 7.8916 7.89063C6.79785 8.98438 6.25098 10.3125 6.25098 11.875C6.25098 13.4375 6.79785 14.7656 7.8916 15.8594C8.98535 16.9531 10.3135 17.5 11.876 17.5Z" fill="#7A7A7A"/>
</g>
</svg>
