<svg width="25" height="25" viewBox="0 0 25 25" fill="none" xmlns="http://www.w3.org/2000/svg">
<mask id="mask0_207_804" style="mask-type:alpha" maskUnits="userSpaceOnUse" x="0" y="0" width="25" height="25">
<rect width="25" height="25" fill="#D9D9D9"/>
</mask>
<g mask="url(#mask0_207_804)">
<path d="M7.29175 22.9166C6.71883 22.9166 6.22838 22.7127 5.82039 22.3047C5.41241 21.8967 5.20841 21.4062 5.20841 20.8333C5.20841 20.2604 5.41241 19.7699 5.82039 19.362C6.22838 18.954 6.71883 18.75 7.29175 18.75C7.86466 18.75 8.35512 18.954 8.7631 19.362C9.17109 19.7699 9.37508 20.2604 9.37508 20.8333C9.37508 21.4062 9.17109 21.8967 8.7631 22.3047C8.35512 22.7127 7.86466 22.9166 7.29175 22.9166ZM17.7084 22.9166C17.1355 22.9166 16.645 22.7127 16.2371 22.3047C15.8291 21.8967 15.6251 21.4062 15.6251 20.8333C15.6251 20.2604 15.8291 19.7699 16.2371 19.362C16.645 18.954 17.1355 18.75 17.7084 18.75C18.2813 18.75 18.7718 18.954 19.1798 19.362C19.5878 19.7699 19.7917 20.2604 19.7917 20.8333C19.7917 21.4062 19.5878 21.8967 19.1798 22.3047C18.7718 22.7127 18.2813 22.9166 17.7084 22.9166ZM6.40633 6.24998L8.90633 11.4583H16.198L19.0626 6.24998H6.40633ZM5.41675 4.16665H20.7813C21.1806 4.16665 21.4845 4.3446 21.6928 4.7005C21.9011 5.0564 21.9098 5.41665 21.7188 5.78123L18.0209 12.4479C17.8299 12.7951 17.5739 13.0642 17.2527 13.2552C16.9315 13.4462 16.5799 13.5416 16.198 13.5416H8.43758L7.29175 15.625H19.7917V17.7083H7.29175C6.5105 17.7083 5.92022 17.3654 5.52091 16.6797C5.12161 15.9939 5.10425 15.3125 5.46883 14.6354L6.87508 12.0833L3.12508 4.16665H1.04175V2.08331H4.42716L5.41675 4.16665Z" fill="black"/>
</g>
</svg>
